<svg id="mermaid-1779124590536" width="100%" xmlns="http://www.w3.org/2000/svg" xmlns:xlink="http://www.w3.org/1999/xlink" style="max-width: 2825.626953125px;" viewBox="-7.5 -8 2825.626953125 1854.5" role="graphics-document document" aria-roledescription="flowchart-v2"><style>#mermaid-1779124590536{font-family:"trebuchet ms",verdana,arial,sans-serif;font-size:16px;fill:#333;}#mermaid-1779124590536 .error-icon{fill:#552222;}#mermaid-1779124590536 .error-text{fill:#552222;stroke:#552222;}#mermaid-1779124590536 .edge-thickness-normal{stroke-width:2px;}#mermaid-1779124590536 .edge-thickness-thick{stroke-width:3.5px;}#mermaid-1779124590536 .edge-pattern-solid{stroke-dasharray:0;}#mermaid-1779124590536 .edge-pattern-dashed{stroke-dasharray:3;}#mermaid-1779124590536 .edge-pattern-dotted{stroke-dasharray:2;}#mermaid-1779124590536 .marker{fill:#333333;stroke:#333333;}#mermaid-1779124590536 .marker.cross{stroke:#333333;}#mermaid-1779124590536 svg{font-family:"trebuchet ms",verdana,arial,sans-serif;font-size:16px;}#mermaid-1779124590536 .label{font-family:"trebuchet ms",verdana,arial,sans-serif;color:#333;}#mermaid-1779124590536 .cluster-label text{fill:#333;}#mermaid-1779124590536 .cluster-label span,#mermaid-1779124590536 p{color:#333;}#mermaid-1779124590536 .label text,#mermaid-1779124590536 span,#mermaid-1779124590536 p{fill:#333;color:#333;}#mermaid-1779124590536 .node rect,#mermaid-1779124590536 .node circle,#mermaid-1779124590536 .node ellipse,#mermaid-1779124590536 .node polygon,#mermaid-1779124590536 .node path{fill:#ECECFF;stroke:#9370DB;stroke-width:1px;}#mermaid-1779124590536 .flowchart-label text{text-anchor:middle;}#mermaid-1779124590536 .node .katex path{fill:#000;stroke:#000;stroke-width:1px;}#mermaid-1779124590536 .node .label{text-align:center;}#mermaid-1779124590536 .node.clickable{cursor:pointer;}#mermaid-1779124590536 .arrowheadPath{fill:#333333;}#mermaid-1779124590536 .edgePath .path{stroke:#333333;stroke-width:2.0px;}#mermaid-1779124590536 .flowchart-link{stroke:#333333;fill:none;}#mermaid-1779124590536 .edgeLabel{background-color:#e8e8e8;text-align:center;}#mermaid-1779124590536 .edgeLabel rect{opacity:0.5;background-color:#e8e8e8;fill:#e8e8e8;}#mermaid-1779124590536 .labelBkg{background-color:rgba(232, 232, 232, 0.5);}#mermaid-1779124590536 .cluster rect{fill:#ffffde;stroke:#aaaa33;stroke-width:1px;}#mermaid-1779124590536 .cluster text{fill:#333;}#mermaid-1779124590536 .cluster span,#mermaid-1779124590536 p{color:#333;}#mermaid-1779124590536 div.mermaidTooltip{position:absolute;text-align:center;max-width:200px;padding:2px;font-family:"trebuchet ms",verdana,arial,sans-serif;font-size:12px;background:hsl(80, 100%, 96.2745098039%);border:1px solid #aaaa33;border-radius:2px;pointer-events:none;z-index:100;}#mermaid-1779124590536 .flowchartTitleText{text-anchor:middle;font-size:18px;fill:#333;}#mermaid-1779124590536 :root{--mermaid-font-family:"trebuchet ms",verdana,arial,sans-serif;}#mermaid-1779124590536 .nodeStyle&gt;*{fill:rgb(209, 231, 221)!important;stroke:rgb(163, 207, 187)!important;color:rgb(51, 51, 51)!important;font-weight:bold!important;}#mermaid-1779124590536 .nodeStyle span{fill:rgb(209, 231, 221)!important;stroke:rgb(163, 207, 187)!important;color:rgb(51, 51, 51)!important;font-weight:bold!important;}#mermaid-1779124590536 .nodeStyle tspan{fill:rgb(51, 51, 51)!important;}#mermaid-1779124590536 .roadmapStyle&gt;*{fill:rgb(209, 231, 221)!important;stroke:rgb(163, 207, 187)!important;color:rgb(85, 85, 85)!important;font-weight:bold!important;}#mermaid-1779124590536 .roadmapStyle span{fill:rgb(209, 231, 221)!important;stroke:rgb(163, 207, 187)!important;color:rgb(85, 85, 85)!important;font-weight:bold!important;}#mermaid-1779124590536 .roadmapStyle tspan{fill:rgb(85, 85, 85)!important;}</style><g><marker id="mermaid-1779124590536_flowchart-pointEnd" class="marker flowchart" viewBox="0 0 10 10" refX="6" refY="5" markerUnits="userSpaceOnUse" markerWidth="12" markerHeight="12" orient="auto"><path d="M 0 0 L 10 5 L 0 10 z" class="arrowMarkerPath" style="stroke-width: 1; stroke-dasharray: 1, 0;"/></marker><marker id="mermaid-1779124590536_flowchart-pointStart" class="marker flowchart" viewBox="0 0 10 10" refX="4.5" refY="5" markerUnits="userSpaceOnUse" markerWidth="12" markerHeight="12" orient="auto"><path d="M 0 5 L 10 10 L 10 0 z" class="arrowMarkerPath" style="stroke-width: 1; stroke-dasharray: 1, 0;"/></marker><marker id="mermaid-1779124590536_flowchart-circleEnd" class="marker flowchart" viewBox="0 0 10 10" refX="11" refY="5" markerUnits="userSpaceOnUse" markerWidth="11" markerHeight="11" orient="auto"><circle cx="5" cy="5" r="5" class="arrowMarkerPath" style="stroke-width: 1; stroke-dasharray: 1, 0;"/></marker><marker id="mermaid-1779124590536_flowchart-circleStart" class="marker flowchart" viewBox="0 0 10 10" refX="-1" refY="5" markerUnits="userSpaceOnUse" markerWidth="11" markerHeight="11" orient="auto"><circle cx="5" cy="5" r="5" class="arrowMarkerPath" style="stroke-width: 1; stroke-dasharray: 1, 0;"/></marker><marker id="mermaid-1779124590536_flowchart-crossEnd" class="marker cross flowchart" viewBox="0 0 11 11" refX="12" refY="5.2" markerUnits="userSpaceOnUse" markerWidth="11" markerHeight="11" orient="auto"><path d="M 1,1 l 9,9 M 10,1 l -9,9" class="arrowMarkerPath" style="stroke-width: 2; stroke-dasharray: 1, 0;"/></marker><marker id="mermaid-1779124590536_flowchart-crossStart" class="marker cross flowchart" viewBox="0 0 11 11" refX="-1" refY="5.2" markerUnits="userSpaceOnUse" markerWidth="11" markerHeight="11" orient="auto"><path d="M 1,1 l 9,9 M 10,1 l -9,9" class="arrowMarkerPath" style="stroke-width: 2; stroke-dasharray: 1, 0;"/></marker><g class="root"><g class="clusters"><g class="cluster default flowchart-label" id="iac_flow"><rect style="fill:#fffbe6;stroke:#f0e68c;stroke-width:2px;stroke-dasharray:5 5;" rx="0" ry="0" x="1127.80078125" y="254" width="583.369140625" height="1584.5"/><g class="cluster-label" transform="translate(1299.6767578125, 254)"><foreignObject width="239.6171875" height="18.5"><div xmlns="http://www.w3.org/1999/xhtml" style="display: inline-block; white-space: nowrap;"><span class="nodeLabel">IaC &amp; Local Emulation (Roadmap)</span></div></foreignObject></g></g><g class="cluster default flowchart-label" id="local_flow"><rect style="fill:#e6f3ff;stroke:#b3d9ff;stroke-width:2px;" rx="0" ry="0" x="1731.169921875" y="0" width="1078.95703125" height="1838.5"/><g class="cluster-label" transform="translate(2182.94921875, 0)"><foreignObject width="175.3984375" height="18.5"><div xmlns="http://www.w3.org/1999/xhtml" style="display: inline-block; white-space: nowrap;"><span class="nodeLabel">Local Development Flow</span></div></foreignObject></g></g><g class="cluster default flowchart-label" id="subGraph4"><rect style="" rx="0" ry="0" x="1169.4609375" y="279" width="442.857421875" height="1287"/><g class="cluster-label" transform="translate(1352.1474609375, 279)"><foreignObject width="77.484375" height="18.5"><div xmlns="http://www.w3.org/1999/xhtml" style="display: inline-block; white-space: nowrap;"><span class="nodeLabel">IaC Tooling</span></div></foreignObject></g></g><g class="cluster default flowchart-label" id="subGraph5"><rect style="" rx="0" ry="0" x="1188.328125" y="1634.5" width="502.046875" height="179"/><g class="cluster-label" transform="translate(1357.359375, 1634.5)"><foreignObject width="163.984375" height="18.5"><div xmlns="http://www.w3.org/1999/xhtml" style="display: inline-block; white-space: nowrap;"><span class="nodeLabel">Emulated AWS Services</span></div></foreignObject></g></g><g class="cluster default flowchart-label" id="subGraph0"><rect style="" rx="0" ry="0" x="1751.169921875" y="25" width="574.6171875" height="142"/><g class="cluster-label" transform="translate(1980.646484375, 25)"><foreignObject width="115.6640625" height="18.5"><div xmlns="http://www.w3.org/1999/xhtml" style="display: inline-block; white-space: nowrap;"><span class="nodeLabel">User Interaction</span></div></foreignObject></g></g><g class="cluster default flowchart-label" id="subGraph1"><rect style="" rx="0" ry="0" x="1820.861328125" y="279" width="929.74609375" height="160.5"/><g class="cluster-label" transform="translate(2251.265625, 279)"><foreignObject width="68.9375" height="18.5"><div xmlns="http://www.w3.org/1999/xhtml" style="display: inline-block; white-space: nowrap;"><span class="nodeLabel">Local App</span></div></foreignObject></g></g><g class="cluster default flowchart-label" id="subGraph2"><rect style="" rx="0" ry="0" x="2028.150390625" y="508" width="761.9765625" height="1305.5"/><g class="cluster-label" transform="translate(2209.240234375, 508)"><foreignObject width="399.796875" height="18.5"><div xmlns="http://www.w3.org/1999/xhtml" style="display: inline-block; white-space: nowrap;"><span class="nodeLabel">Local Docker Environment (Docker Compose &amp; Desktop)</span></div></foreignObject></g></g></g><g class="edgePaths"><path d="M2067.861,103.135L2104.234,113.78C2140.606,124.424,2213.351,145.712,2249.723,163.606C2286.096,181.5,2286.096,196,2286.096,210.5C2286.096,225,2286.096,239.5,2286.096,250.917C2286.096,262.333,2286.096,270.667,2286.096,278.117C2286.096,285.567,2286.096,292.133,2286.096,295.417L2286.096,298.7" id="L-LocalUser-LocalApp-0" class=" edge-thickness-normal edge-pattern-solid flowchart-link LS-LocalUser LE-LocalApp" style="stroke:#006d77;stroke-width:2px;fill:none;" marker-end="url(#mermaid-1779124590536_flowchart-pointEnd)"/><path d="M2214.67,392.236L2197.613,400.114C2180.557,407.991,2146.443,423.745,2129.387,437.331C2112.33,450.917,2112.33,462.333,2112.33,473.75C2112.33,485.167,2112.33,496.583,2112.33,580.367C2112.33,664.15,2112.33,820.3,2112.33,898.375L2112.33,976.45" id="L-LocalApp-Postgres-0" class=" edge-thickness-normal edge-pattern-solid flowchart-link LS-LocalApp LE-Postgres" style="stroke:#006d77;stroke-width:2px;fill:none;" marker-end="url(#mermaid-1779124590536_flowchart-pointEnd)"/><path d="M2286.096,414.5L2286.096,418.667C2286.096,422.833,2286.096,431.167,2286.096,441.042C2286.096,450.917,2286.096,462.333,2286.096,473.75C2286.096,485.167,2286.096,496.583,2286.096,580.367C2286.096,664.15,2286.096,820.3,2286.096,898.375L2286.096,976.45" id="L-LocalApp-Kafka-0" class=" edge-thickness-normal edge-pattern-solid flowchart-link LS-LocalApp LE-Kafka" style="stroke:#006d77;stroke-width:2px;fill:none;" marker-end="url(#mermaid-1779124590536_flowchart-pointEnd)"/><path d="M2357.521,373.007L2415.059,384.089C2472.596,395.171,2587.67,417.336,2645.207,434.126C2702.744,450.917,2702.744,462.333,2702.744,473.75C2702.744,485.167,2702.744,496.583,2702.744,580.367C2702.744,664.15,2702.744,820.3,2702.744,898.375L2702.744,976.45" id="L-LocalApp-Prometheus-0" class=" edge-thickness-normal edge-pattern-solid flowchart-link LS-LocalApp LE-Prometheus" style="stroke:#006d77;stroke-width:2px;fill:none;" marker-end="url(#mermaid-1779124590536_flowchart-pointEnd)"/><path d="M2357.521,380.15L2391.326,390.042C2425.131,399.933,2492.74,419.717,2526.545,435.317C2560.35,450.917,2560.35,462.333,2560.35,473.75C2560.35,485.167,2560.35,496.583,2560.35,580.367C2560.35,664.15,2560.35,820.3,2560.35,898.375L2560.35,976.45" id="L-LocalApp-Zipkin-0" class=" edge-thickness-normal edge-pattern-solid flowchart-link LS-LocalApp LE-Zipkin" style="stroke:#006d77;stroke-width:2px;fill:none;" marker-end="url(#mermaid-1779124590536_flowchart-pointEnd)"/><path d="M2357.521,396.381L2371.346,403.567C2385.17,410.754,2412.818,425.127,2426.643,438.022C2440.467,450.917,2440.467,462.333,2440.467,473.75C2440.467,485.167,2440.467,496.583,2440.467,580.367C2440.467,664.15,2440.467,820.3,2440.467,898.375L2440.467,976.45" id="L-LocalApp-Loki-0" class=" edge-thickness-normal edge-pattern-solid flowchart-link LS-LocalApp LE-Loki" style="stroke:#006d77;stroke-width:2px;fill:none;" marker-end="url(#mermaid-1779124590536_flowchart-pointEnd)"/><path d="M2702.744,1092.25L2702.744,1171.208C2702.744,1250.167,2702.744,1408.083,2702.744,1492.75C2702.744,1577.417,2702.744,1588.833,2702.744,1600.25C2702.744,1611.667,2702.744,1623.083,2690.362,1637.242C2677.98,1651.401,2653.216,1668.302,2640.834,1676.753L2628.452,1685.203" id="L-Prometheus-Grafana-0" class=" edge-thickness-normal edge-pattern-solid flowchart-link LS-Prometheus LE-Grafana" style="stroke:#006d77;stroke-width:2px;fill:none;" marker-end="url(#mermaid-1779124590536_flowchart-pointEnd)"/><path d="M2560.35,1092.25L2560.35,1171.208C2560.35,1250.167,2560.35,1408.083,2560.35,1492.75C2560.35,1577.417,2560.35,1588.833,2560.35,1600.25C2560.35,1611.667,2560.35,1623.083,2560.957,1633.624C2561.565,1644.164,2562.78,1653.828,2563.388,1658.66L2563.996,1663.491" id="L-Zipkin-Grafana-0" class=" edge-thickness-normal edge-pattern-solid flowchart-link LS-Zipkin LE-Grafana" style="stroke:#006d77;stroke-width:2px;fill:none;" marker-end="url(#mermaid-1779124590536_flowchart-pointEnd)"/><path d="M2440.467,1092.25L2440.467,1171.208C2440.467,1250.167,2440.467,1408.083,2440.467,1492.75C2440.467,1577.417,2440.467,1588.833,2440.467,1600.25C2440.467,1611.667,2440.467,1623.083,2452.849,1637.242C2465.231,1651.401,2489.995,1668.302,2502.377,1676.753L2514.759,1685.203" id="L-Loki-Grafana-0" class=" edge-thickness-normal edge-pattern-solid flowchart-link LS-Loki LE-Grafana" style="stroke:#006d77;stroke-width:2px;fill:none;" marker-end="url(#mermaid-1779124590536_flowchart-pointEnd)"/><path d="M1400.27,414.5L1401.476,418.667C1402.683,422.833,1405.096,431.167,1406.303,441.042C1407.51,450.917,1407.51,462.333,1407.51,473.75C1407.51,485.167,1407.51,496.583,1407.51,573.95C1407.51,651.317,1407.51,794.633,1407.51,866.292L1407.51,937.95" id="L-Terraform-Floci-0" class=" edge-thickness-normal edge-pattern-dotted flowchart-link LS-Terraform LE-Floci" style="fill:none;stroke-width:2px;stroke-dasharray:3;stroke:#999;stroke-width:2px;stroke-dasharray:5 5;fill:none;" marker-end="url(#mermaid-1779124590536_flowchart-pointEnd)"/><path d="M1388.873,1130.75L1374.452,1203.292C1360.031,1275.833,1331.189,1420.917,1316.769,1499.167C1302.348,1577.417,1302.348,1588.833,1302.348,1600.25C1302.348,1611.667,1302.348,1623.083,1302.348,1633.617C1302.348,1644.15,1302.348,1653.8,1302.348,1658.625L1302.348,1663.45" id="L-Floci-EmulatedRDS-0" class=" edge-thickness-normal edge-pattern-dotted flowchart-link LS-Floci LE-EmulatedRDS" style="fill:none;stroke-width:2px;stroke-dasharray:3;stroke:#999;stroke-width:2px;stroke-dasharray:5 5;fill:none;" marker-end="url(#mermaid-1779124590536_flowchart-pointEnd)"/><path d="M1431.587,1130.75L1450.218,1203.292C1468.849,1275.833,1506.11,1420.917,1524.74,1499.167C1543.371,1577.417,1543.371,1588.833,1543.371,1600.25C1543.371,1611.667,1543.371,1623.083,1543.371,1632.075C1543.371,1641.067,1543.371,1647.633,1543.371,1650.917L1543.371,1654.2" id="L-Floci-EmulatedMSK-0" class=" edge-thickness-normal edge-pattern-dotted flowchart-link LS-Floci LE-EmulatedMSK" style="fill:none;stroke-width:2px;stroke-dasharray:3;stroke:#999;stroke-width:2px;stroke-dasharray:5 5;fill:none;" marker-end="url(#mermaid-1779124590536_flowchart-pointEnd)"/><path d="M2214.67,372.729L2155.702,383.858C2096.734,394.986,1978.798,417.243,1919.829,434.08C1860.861,450.917,1860.861,462.333,1860.861,473.75C1860.861,485.167,1860.861,496.583,1860.861,590.458C1860.861,684.333,1860.861,860.667,1860.861,1037C1860.861,1213.333,1860.861,1389.667,1860.861,1483.542C1860.861,1577.417,1860.861,1588.833,1860.861,1600.25C1860.861,1611.667,1860.861,1623.083,1781.818,1641.458C1702.774,1659.833,1544.687,1685.166,1465.644,1697.832L1386.6,1710.499" id="L-LocalApp-EmulatedRDS-0" class=" edge-thickness-normal edge-pattern-dotted flowchart-link LS-LocalApp LE-EmulatedRDS" style="fill:none;stroke-width:2px;stroke-dasharray:3;stroke:#999;stroke-width:2px;stroke-dasharray:5 5;fill:none;" marker-end="url(#mermaid-1779124590536_flowchart-pointEnd)"/><path d="M2214.67,377.141L2173.178,387.534C2131.687,397.928,2048.704,418.714,2007.212,434.815C1965.721,450.917,1965.721,462.333,1965.721,473.75C1965.721,485.167,1965.721,496.583,1965.721,590.458C1965.721,684.333,1965.721,860.667,1965.721,1037C1965.721,1213.333,1965.721,1389.667,1965.721,1483.542C1965.721,1577.417,1965.721,1588.833,1965.721,1600.25C1965.721,1611.667,1965.721,1623.083,1914.861,1639.569C1864,1656.056,1762.28,1677.611,1711.42,1688.389L1660.56,1699.167" id="L-LocalApp-EmulatedMSK-0" class=" edge-thickness-normal edge-pattern-dotted flowchart-link LS-LocalApp LE-EmulatedMSK" style="fill:none;stroke-width:2px;stroke-dasharray:3;stroke:#999;stroke-width:2px;stroke-dasharray:5 5;fill:none;" marker-end="url(#mermaid-1779124590536_flowchart-pointEnd)"/><path d="M1731.17,288.163L1711.17,320.09" id="L-local_flow-iac_flow-0" class=" edge-thickness-normal edge-pattern-solid flowchart-link LS-local_flow LE-iac_flow" style="stroke-width:0px;fill:none;"/><path d="M1127.801,533.619L1092.801,637.051" id="L-iac_flow-prod_flow-0" class=" edge-thickness-normal edge-pattern-solid flowchart-link LS-iac_flow LE-prod_flow" style="stroke-width:0px;fill:none;"/></g><g class="edgeLabels"><g class="edgeLabel" transform="translate(2286.095703125, 210.5)"><g class="label" transform="translate(-118.16796875, -18.5)"><foreignObject width="236.3359375" height="37"><div xmlns="http://www.w3.org/1999/xhtml" style="display: inline-block; white-space: nowrap;"><span class="edgeLabel">localhost:8080/orders (POST)<br />localhost:8080/orders/{id} (GET)</span></div></foreignObject></g></g><g class="edgeLabel"><g class="label" transform="translate(0, 0)"><foreignObject width="0" height="0"><div xmlns="http://www.w3.org/1999/xhtml" style="display: inline-block; white-space: nowrap;"><span class="edgeLabel"></span></div></foreignObject></g></g><g class="edgeLabel"><g class="label" transform="translate(0, 0)"><foreignObject width="0" height="0"><div xmlns="http://www.w3.org/1999/xhtml" style="display: inline-block; white-space: nowrap;"><span class="edgeLabel"></span></div></foreignObject></g></g><g class="edgeLabel" transform="translate(2702.744140625, 473.75)"><g class="label" transform="translate(-35.96484375, -9.25)"><foreignObject width="71.9296875" height="18.5"><div xmlns="http://www.w3.org/1999/xhtml" style="display: inline-block; white-space: nowrap;"><span class="edgeLabel">Telemetry</span></div></foreignObject></g></g><g class="edgeLabel"><g class="label" transform="translate(0, 0)"><foreignObject width="0" height="0"><div xmlns="http://www.w3.org/1999/xhtml" style="display: inline-block; white-space: nowrap;"><span class="edgeLabel"></span></div></foreignObject></g></g><g class="edgeLabel"><g class="label" transform="translate(0, 0)"><foreignObject width="0" height="0"><div xmlns="http://www.w3.org/1999/xhtml" style="display: inline-block; white-space: nowrap;"><span class="edgeLabel"></span></div></foreignObject></g></g><g class="edgeLabel"><g class="label" transform="translate(0, 0)"><foreignObject width="0" height="0"><div xmlns="http://www.w3.org/1999/xhtml" style="display: inline-block; white-space: nowrap;"><span class="edgeLabel"></span></div></foreignObject></g></g><g class="edgeLabel"><g class="label" transform="translate(0, 0)"><foreignObject width="0" height="0"><div xmlns="http://www.w3.org/1999/xhtml" style="display: inline-block; white-space: nowrap;"><span class="edgeLabel"></span></div></foreignObject></g></g><g class="edgeLabel"><g class="label" transform="translate(0, 0)"><foreignObject width="0" height="0"><div xmlns="http://www.w3.org/1999/xhtml" style="display: inline-block; white-space: nowrap;"><span class="edgeLabel"></span></div></foreignObject></g></g><g class="edgeLabel" transform="translate(1407.509765625, 473.75)"><g class="label" transform="translate(-26.48046875, -9.25)"><foreignObject width="52.9609375" height="18.5"><div xmlns="http://www.w3.org/1999/xhtml" style="display: inline-block; white-space: nowrap;"><span class="edgeLabel">Defines</span></div></foreignObject></g></g><g class="edgeLabel" transform="translate(1302.34765625, 1600.25)"><g class="label" transform="translate(-32.6328125, -9.25)"><foreignObject width="65.265625" height="18.5"><div xmlns="http://www.w3.org/1999/xhtml" style="display: inline-block; white-space: nowrap;"><span class="edgeLabel">Emulates</span></div></foreignObject></g></g><g class="edgeLabel" transform="translate(1543.37109375, 1600.25)"><g class="label" transform="translate(-32.6328125, -9.25)"><foreignObject width="65.265625" height="18.5"><div xmlns="http://www.w3.org/1999/xhtml" style="display: inline-block; white-space: nowrap;"><span class="edgeLabel">Emulates</span></div></foreignObject></g></g><g class="edgeLabel" transform="translate(1860.861328125, 1037)"><g class="label" transform="translate(-42.4296875, -9.25)"><foreignObject width="84.859375" height="18.5"><div xmlns="http://www.w3.org/1999/xhtml" style="display: inline-block; white-space: nowrap;"><span class="edgeLabel">Connects to</span></div></foreignObject></g></g><g class="edgeLabel" transform="translate(1965.720703125, 1037)"><g class="label" transform="translate(-42.4296875, -9.25)"><foreignObject width="84.859375" height="18.5"><div xmlns="http://www.w3.org/1999/xhtml" style="display: inline-block; white-space: nowrap;"><span class="edgeLabel">Connects to</span></div></foreignObject></g></g><g class="edgeLabel"><g class="label" transform="translate(0, 0)"><foreignObject width="0" height="0"><div xmlns="http://www.w3.org/1999/xhtml" style="display: inline-block; white-space: nowrap;"><span class="edgeLabel"></span></div></foreignObject></g></g><g class="edgeLabel"><g class="label" transform="translate(0, 0)"><foreignObject width="0" height="0"><div xmlns="http://www.w3.org/1999/xhtml" style="display: inline-block; white-space: nowrap;"><span class="edgeLabel"></span></div></foreignObject></g></g></g><g class="nodes"><g class="root" transform="translate(-7.5, 525)"><g class="clusters"><g class="cluster default flowchart-label" id="prod_flow"><rect style="fill:#e6f3ff;stroke:#b3d9ff;stroke-width:2px;" rx="0" ry="0" x="8" y="8" width="1092.80078125" height="1008"/><g class="cluster-label" transform="translate(455.919921875, 8)"><foreignObject width="196.9609375" height="18.5"><div xmlns="http://www.w3.org/1999/xhtml" style="display: inline-block; white-space: nowrap;"><span class="nodeLabel">Production Flow (Roadmap)</span></div></foreignObject></g></g><g class="cluster default flowchart-label" id="subGraph7"><rect style="" rx="0" ry="0" x="486.623046875" y="33" width="118.765625" height="142"/><g class="cluster-label" transform="translate(488.173828125, 33)"><foreignObject width="115.6640625" height="18.5"><div xmlns="http://www.w3.org/1999/xhtml" style="display: inline-block; white-space: nowrap;"><span class="nodeLabel">User Interaction</span></div></foreignObject></g></g><g class="cluster default flowchart-label" id="subGraph8"><rect style="" rx="0" ry="0" x="28" y="262" width="1018.96875" height="358"/><g class="cluster-label" transform="translate(433.1875, 262)"><foreignObject width="208.59375" height="18.5"><div xmlns="http://www.w3.org/1999/xhtml" style="display: inline-block; white-space: nowrap;"><span class="nodeLabel">Production App &amp; Infra (AWS)</span></div></foreignObject></g></g><g class="cluster default flowchart-label" id="subGraph9"><rect style="" rx="0" ry="0" x="418.0546875" y="670" width="662.74609375" height="321"/><g class="cluster-label" transform="translate(604.783203125, 670)"><foreignObject width="289.2890625" height="18.5"><div xmlns="http://www.w3.org/1999/xhtml" style="display: inline-block; white-space: nowrap;"><span class="nodeLabel">Production Observability (AWS Managed)</span></div></foreignObject></g></g></g><g class="edgePaths"><path d="M546.006,150L546.006,154.167C546.006,158.333,546.006,166.667,546.006,178.083C546.006,189.5,546.006,204,546.006,218.5C546.006,233,546.006,247.5,546.006,258.033C546.006,268.567,546.006,275.133,546.006,278.417L546.006,281.7" id="L-ProdUser-EC2App-0" class=" edge-thickness-normal edge-pattern-solid flowchart-link LS-ProdUser LE-EC2App" style="stroke:#999;stroke-width:2px;stroke-dasharray:5 5;fill:none;" marker-end="url(#mermaid-1779124590536_flowchart-pointEnd)"/><path d="M474.58,358.074L419.153,370.353C363.727,382.633,252.873,407.191,197.446,425.837C142.02,444.483,142.02,457.217,142.02,463.583L142.02,469.95" id="L-EC2App-RDS-0" class=" edge-thickness-normal edge-pattern-solid flowchart-link LS-EC2App LE-RDS" style="stroke:#999;stroke-width:2px;stroke-dasharray:5 5;fill:none;" marker-end="url(#mermaid-1779124590536_flowchart-pointEnd)"/><path d="M474.58,381.477L459.324,389.856C444.068,398.235,413.555,414.992,398.299,428.196C383.043,441.4,383.043,451.05,383.043,455.875L383.043,460.7" id="L-EC2App-MSK-0" class=" edge-thickness-normal edge-pattern-solid flowchart-link LS-EC2App LE-MSK" style="stroke:#999;stroke-width:2px;stroke-dasharray:5 5;fill:none;" marker-end="url(#mermaid-1779124590536_flowchart-pointEnd)"/><path d="M617.432,372.863L640.331,382.677C663.23,392.492,709.029,412.121,731.929,428.302C754.828,444.483,754.828,457.217,754.828,463.583L754.828,469.95" id="L-EC2App-ADOT-0" class=" edge-thickness-normal edge-pattern-solid flowchart-link LS-EC2App LE-ADOT" style="stroke:#999;stroke-width:2px;stroke-dasharray:5 5;fill:none;" marker-end="url(#mermaid-1779124590536_flowchart-pointEnd)"/><path d="M754.828,585.75L754.828,591.458C754.828,597.167,754.828,608.583,754.828,618.458C754.828,628.333,754.828,636.667,754.828,645C754.828,653.333,754.828,661.667,754.828,669.117C754.828,676.567,754.828,683.133,754.828,686.417L754.828,689.7" id="L-ADOT-AWS_XRay-0" class=" edge-thickness-normal edge-pattern-solid flowchart-link LS-ADOT LE-AWS_XRay" style="stroke:#999;stroke-width:2px;stroke-dasharray:5 5;fill:none;" marker-end="url(#mermaid-1779124590536_flowchart-pointEnd)"/><path d="M552.081,397.5L552.709,403.208C553.337,408.917,554.592,420.333,555.22,442.5C555.848,464.667,555.848,497.583,555.848,528.958C555.848,560.333,555.848,590.167,555.848,609.25C555.848,628.333,555.848,636.667,555.848,645C555.848,653.333,555.848,661.667,555.848,669.117C555.848,676.567,555.848,683.133,555.848,686.417L555.848,689.7" id="L-EC2App-AWS_Prometheus-0" class=" edge-thickness-normal edge-pattern-solid flowchart-link LS-EC2App LE-AWS_Prometheus" style="stroke:#999;stroke-width:2px;stroke-dasharray:5 5;fill:none;" marker-end="url(#mermaid-1779124590536_flowchart-pointEnd)"/><path d="M617.432,357.616L674.862,369.972C732.293,382.328,847.154,407.039,904.585,435.853C962.016,464.667,962.016,497.583,962.016,528.958C962.016,560.333,962.016,590.167,962.016,609.25C962.016,628.333,962.016,636.667,962.016,645C962.016,653.333,962.016,661.667,962.016,669.117C962.016,676.567,962.016,683.133,962.016,686.417L962.016,689.7" id="L-EC2App-CloudWatchLogs-0" class=" edge-thickness-normal edge-pattern-solid flowchart-link LS-EC2App LE-CloudWatchLogs" style="stroke:#999;stroke-width:2px;stroke-dasharray:5 5;fill:none;" marker-end="url(#mermaid-1779124590536_flowchart-pointEnd)"/><path d="M555.848,805.5L555.848,809.667C555.848,813.833,555.848,822.167,570.947,832.423C586.046,842.679,616.245,854.859,631.345,860.948L646.444,867.038" id="L-AWS_Prometheus-AWS_Grafana-0" class=" edge-thickness-normal edge-pattern-solid flowchart-link LS-AWS_Prometheus LE-AWS_Grafana" style="stroke:#999;stroke-width:2px;stroke-dasharray:5 5;fill:none;" marker-end="url(#mermaid-1779124590536_flowchart-pointEnd)"/><path d="M754.828,805.5L754.828,809.667C754.828,813.833,754.828,822.167,754.828,829.617C754.828,837.067,754.828,843.633,754.828,846.917L754.828,850.2" id="L-AWS_XRay-AWS_Grafana-0" class=" edge-thickness-normal edge-pattern-solid flowchart-link LS-AWS_XRay LE-AWS_Grafana" style="stroke:#999;stroke-width:2px;stroke-dasharray:5 5;fill:none;" marker-end="url(#mermaid-1779124590536_flowchart-pointEnd)"/><path d="M962.016,805.5L962.016,809.667C962.016,813.833,962.016,822.167,945.553,832.71C929.09,843.253,896.165,856.006,879.702,862.383L863.239,868.759" id="L-CloudWatchLogs-AWS_Grafana-0" class=" edge-thickness-normal edge-pattern-solid flowchart-link LS-CloudWatchLogs LE-AWS_Grafana" style="stroke:#999;stroke-width:2px;stroke-dasharray:5 5;fill:none;" marker-end="url(#mermaid-1779124590536_flowchart-pointEnd)"/></g><g class="edgeLabels"><g class="edgeLabel" transform="translate(546.005859375, 218.5)"><g class="label" transform="translate(-110.27734375, -18.5)"><foreignObject width="220.5546875" height="37"><div xmlns="http://www.w3.org/1999/xhtml" style="display: inline-block; white-space: nowrap;"><span class="edgeLabel">domain.com/orders (POST)<br />domain.com/orders/{id} (GET)</span></div></foreignObject></g></g><g class="edgeLabel"><g class="label" transform="translate(0, 0)"><foreignObject width="0" height="0"><div xmlns="http://www.w3.org/1999/xhtml" style="display: inline-block; white-space: nowrap;"><span class="edgeLabel"></span></div></foreignObject></g></g><g class="edgeLabel"><g class="label" transform="translate(0, 0)"><foreignObject width="0" height="0"><div xmlns="http://www.w3.org/1999/xhtml" style="display: inline-block; white-space: nowrap;"><span class="edgeLabel"></span></div></foreignObject></g></g><g class="edgeLabel" transform="translate(754.828125, 431.75)"><g class="label" transform="translate(-40.66796875, -9.25)"><foreignObject width="81.3359375" height="18.5"><div xmlns="http://www.w3.org/1999/xhtml" style="display: inline-block; white-space: nowrap;"><span class="edgeLabel">OTel Traces</span></div></foreignObject></g></g><g class="edgeLabel"><g class="label" transform="translate(0, 0)"><foreignObject width="0" height="0"><div xmlns="http://www.w3.org/1999/xhtml" style="display: inline-block; white-space: nowrap;"><span class="edgeLabel"></span></div></foreignObject></g></g><g class="edgeLabel" transform="translate(555.84765625, 530.5)"><g class="label" transform="translate(-25.80078125, -9.25)"><foreignObject width="51.6015625" height="18.5"><div xmlns="http://www.w3.org/1999/xhtml" style="display: inline-block; white-space: nowrap;"><span class="edgeLabel">Metrics</span></div></foreignObject></g></g><g class="edgeLabel" transform="translate(962.015625, 530.5)"><g class="label" transform="translate(-64.953125, -18.5)"><foreignObject width="129.90625" height="37"><div xmlns="http://www.w3.org/1999/xhtml" style="display: inline-block; white-space: nowrap;"><span class="edgeLabel">Logs via<br />CloudWatch Agent</span></div></foreignObject></g></g><g class="edgeLabel"><g class="label" transform="translate(0, 0)"><foreignObject width="0" height="0"><div xmlns="http://www.w3.org/1999/xhtml" style="display: inline-block; white-space: nowrap;"><span class="edgeLabel"></span></div></foreignObject></g></g><g class="edgeLabel"><g class="label" transform="translate(0, 0)"><foreignObject width="0" height="0"><div xmlns="http://www.w3.org/1999/xhtml" style="display: inline-block; white-space: nowrap;"><span class="edgeLabel"></span></div></foreignObject></g></g><g class="edgeLabel"><g class="label" transform="translate(0, 0)"><foreignObject width="0" height="0"><div xmlns="http://www.w3.org/1999/xhtml" style="display: inline-block; white-space: nowrap;"><span class="edgeLabel"></span></div></foreignObject></g></g></g><g class="nodes"><g class="node default roadmapStyle flowchart-label" id="flowchart-ProdUser-15" data-node="true" data-id="ProdUser" transform="translate(546.005859375, 104)"><rect class="basic label-container" style="" rx="0" ry="0" x="-24.3828125" y="-46" width="48.765625" height="92"/><g class="label" style="" transform="translate(-16.8828125, -38.5)"><rect/><foreignObject width="33.765625" height="77"><div xmlns="http://www.w3.org/1999/xhtml" style="display: inline-block; white-space: nowrap;"><span class="nodeLabel"><div><img src="https://cdn.jsdelivr.net/gh/glincker/thesvg@main/public/icons/azure-users/default.svg" style="width: 100%; height: 40px; display: flex; flex-direction: column;" /><br />User</div></span></div></foreignObject></g></g><g class="node default roadmapStyle flowchart-label" id="flowchart-EC2App-16" data-node="true" data-id="EC2App" transform="translate(546.005859375, 342.25)"><rect class="basic label-container" style="" rx="0" ry="0" x="-71.42578125" y="-55.25" width="142.8515625" height="110.5"/><g class="label" style="" transform="translate(-63.92578125, -47.75)"><rect/><foreignObject width="127.8515625" height="95.5"><div xmlns="http://www.w3.org/1999/xhtml" style="display: inline-block; white-space: nowrap;"><span class="nodeLabel"><div><img src="https://cdn.jsdelivr.net/gh/glincker/thesvg@main/public/icons/aws-amazon-ec2/default.svg" style="width: 100%; height: 40px; display: flex; flex-direction: column;" /><br />AWS EC2<br />(Spring WebFlux)</div></span></div></foreignObject></g></g><g class="node default roadmapStyle flowchart-label" id="flowchart-RDS-18" data-node="true" data-id="RDS" transform="translate(142.01953125, 530.5)"><rect class="basic label-container" style="" rx="0" ry="0" x="-79.01953125" y="-55.25" width="158.0390625" height="110.5"/><g class="label" style="" transform="translate(-71.51953125, -47.75)"><rect/><foreignObject width="143.0390625" height="95.5"><div xmlns="http://www.w3.org/1999/xhtml" style="display: inline-block; white-space: nowrap;"><span class="nodeLabel"><div><img src="https://cdn.jsdelivr.net/gh/glincker/thesvg@main/public/icons/aws-amazon-rds/default.svg" style="width: 100%; height: 40px; display: flex; flex-direction: column;" /><br />RDS for PostgreSQL<br />(Database)</div></span></div></foreignObject></g></g><g class="node default roadmapStyle flowchart-label" id="flowchart-MSK-19" data-node="true" data-id="MSK" transform="translate(383.04296875, 530.5)"><rect class="basic label-container" style="" rx="0" ry="0" x="-112.00390625" y="-64.5" width="224.0078125" height="129"/><g class="label" style="" transform="translate(-104.50390625, -57)"><rect/><foreignObject width="209.0078125" height="114"><div xmlns="http://www.w3.org/1999/xhtml" style="display: inline-block; white-space: nowrap;"><span class="nodeLabel"><div><img src="https://cdn.jsdelivr.net/gh/glincker/thesvg@main/public/icons/aws-res-amazon-msk-amazon-msk-connect/default.svg" style="width: 100%; height: 40px; display: flex; flex-direction: column;" /><br />Amazon Managed Streaming<br />for Apache Kafka (MSK)<br />(Event Streaming)</div></span></div></foreignObject></g></g><g class="node default roadmapStyle flowchart-label" id="flowchart-ADOT-17" data-node="true" data-id="ADOT" transform="translate(754.828125, 530.5)"><rect class="basic label-container" style="" rx="0" ry="0" x="-107.234375" y="-55.25" width="214.46875" height="110.5"/><g class="label" style="" transform="translate(-99.734375, -47.75)"><rect/><foreignObject width="199.46875" height="95.5"><div xmlns="http://www.w3.org/1999/xhtml" style="display: inline-block; white-space: nowrap;"><span class="nodeLabel"><div><img src="https://cdn.jsdelivr.net/gh/glincker/thesvg@main/public/icons/aws-aws-distro-for-opentelemetry/default.svg" style="width: 100%; height: 40px; display: flex; flex-direction: column;" /><br />ADOT<br />(OpenTelemetry Collector)</div></span></div></foreignObject></g></g><g class="node default roadmapStyle flowchart-label" id="flowchart-AWS_XRay-22" data-node="true" data-id="AWS_XRay" transform="translate(754.828125, 750.25)"><rect class="basic label-container" style="" rx="0" ry="0" x="-46.86328125" y="-55.25" width="93.7265625" height="110.5"/><g class="label" style="" transform="translate(-39.36328125, -47.75)"><rect/><foreignObject width="78.7265625" height="95.5"><div xmlns="http://www.w3.org/1999/xhtml" style="display: inline-block; white-space: nowrap;"><span class="nodeLabel"><div><img src="https://cdn.jsdelivr.net/gh/glincker/thesvg@main/public/icons/aws-aws-x-ray/default.svg" style="width: 100%; height: 40px; display: flex; flex-direction: column;" /><br />AWS X-Ray<br />(Tracing)</div></span></div></foreignObject></g></g><g class="node default roadmapStyle flowchart-label" id="flowchart-AWS_Prometheus-20" data-node="true" data-id="AWS_Prometheus" transform="translate(555.84765625, 750.25)"><rect class="basic label-container" style="" rx="0" ry="0" x="-102.1171875" y="-55.25" width="204.234375" height="110.5"/><g class="label" style="" transform="translate(-94.6171875, -47.75)"><rect/><foreignObject width="189.234375" height="95.5"><div xmlns="http://www.w3.org/1999/xhtml" style="display: inline-block; white-space: nowrap;"><span class="nodeLabel"><div><img src="https://cdn.jsdelivr.net/gh/glincker/thesvg@main/public/icons/aws-amazon-managed-service-for-prometheus/default.svg" style="width: 100%; height: 40px; display: flex; flex-direction: column;" /><br />Amazon Managed Service<br />for Prometheus (Metrics)</div></span></div></foreignObject></g></g><g class="node default roadmapStyle flowchart-label" id="flowchart-CloudWatchLogs-23" data-node="true" data-id="CloudWatchLogs" transform="translate(962.015625, 750.25)"><rect class="basic label-container" style="" rx="0" ry="0" x="-83.78515625" y="-55.25" width="167.5703125" height="110.5"/><g class="label" style="" transform="translate(-76.28515625, -47.75)"><rect/><foreignObject width="152.5703125" height="95.5"><div xmlns="http://www.w3.org/1999/xhtml" style="display: inline-block; white-space: nowrap;"><span class="nodeLabel"><div><img src="https://cdn.jsdelivr.net/gh/glincker/thesvg@main/public/icons/aws-amazon-cloudwatch/default.svg" style="width: 100%; height: 40px; display: flex; flex-direction: column;" /><br />Amazon CloudWatch<br />(Logs)</div></span></div></foreignObject></g></g><g class="node default roadmapStyle flowchart-label" id="flowchart-AWS_Grafana-21" data-node="true" data-id="AWS_Grafana" transform="translate(754.828125, 910.75)"><rect class="basic label-container" style="" rx="0" ry="0" x="-103.46875" y="-55.25" width="206.9375" height="110.5"/><g class="label" style="" transform="translate(-95.96875, -47.75)"><rect/><foreignObject width="191.9375" height="95.5"><div xmlns="http://www.w3.org/1999/xhtml" style="display: inline-block; white-space: nowrap;"><span class="nodeLabel"><div><img src="https://cdn.jsdelivr.net/gh/glincker/thesvg@main/public/icons/aws-amazon-managed-grafana/default.svg" style="width: 100%; height: 40px; display: flex; flex-direction: column;" /><br />Amazon Managed Grafana<br />(Dashboard)</div></span></div></foreignObject></g></g></g></g><g class="node default roadmapStyle flowchart-label" id="flowchart-EmulatedRDS-13" data-node="true" data-id="EmulatedRDS" transform="translate(1302.34765625, 1724)"><rect class="basic label-container" style="" rx="0" ry="0" x="-79.01953125" y="-55.25" width="158.0390625" height="110.5"/><g class="label" style="" transform="translate(-71.51953125, -47.75)"><rect/><foreignObject width="143.0390625" height="95.5"><div xmlns="http://www.w3.org/1999/xhtml" style="display: inline-block; white-space: nowrap;"><span class="nodeLabel"><div><img src="https://cdn.jsdelivr.net/gh/glincker/thesvg@main/public/icons/aws-amazon-rds/default.svg" style="width: 100%; height: 40px; display: flex; flex-direction: column;" /><br />RDS for PostgreSQL<br />(Database)</div></span></div></foreignObject></g></g><g class="node default roadmapStyle flowchart-label" id="flowchart-EmulatedMSK-14" data-node="true" data-id="EmulatedMSK" transform="translate(1543.37109375, 1724)"><rect class="basic label-container" style="" rx="0" ry="0" x="-112.00390625" y="-64.5" width="224.0078125" height="129"/><g class="label" style="" transform="translate(-104.50390625, -57)"><rect/><foreignObject width="209.0078125" height="114"><div xmlns="http://www.w3.org/1999/xhtml" style="display: inline-block; white-space: nowrap;"><span class="nodeLabel"><div><img src="https://cdn.jsdelivr.net/gh/glincker/thesvg@main/public/icons/aws-res-amazon-msk-amazon-msk-connect/default.svg" style="width: 100%; height: 40px; display: flex; flex-direction: column;" /><br />Amazon Managed Streaming<br />for Apache Kafka (MSK)<br />(Event Streaming)</div></span></div></foreignObject></g></g><g class="node default roadmapStyle flowchart-label" id="flowchart-Terraform-11" data-node="true" data-id="Terraform" transform="translate(1384.26953125, 359.25)"><rect class="basic label-container" style="" rx="0" ry="0" x="-113.59375" y="-55.25" width="227.1875" height="110.5"/><g class="label" style="" transform="translate(-106.09375, -47.75)"><rect/><foreignObject width="212.1875" height="95.5"><div xmlns="http://www.w3.org/1999/xhtml" style="display: inline-block; white-space: nowrap;"><span class="nodeLabel"><div><img src="https://cdn.jsdelivr.net/gh/glincker/thesvg@main/public/icons/terraform/default.svg" style="width: 100%; height: 40px; display: flex; flex-direction: column;" /><br />Terraform<br />(Infrastructure Provisioning)</div></span></div></foreignObject></g></g><g class="node default roadmapStyle flowchart-label" id="flowchart-Floci-12" data-node="true" data-id="Floci" transform="translate(1407.509765625, 1037)"><rect class="basic label-container" style="" rx="0" ry="0" x="-48.01953125" y="-93.75" width="96.0390625" height="187.5"/><g class="label" style="" transform="translate(-40.51953125, -86.25)"><rect/><foreignObject width="81.0390625" height="172.5"><div xmlns="http://www.w3.org/1999/xhtml" style="display: inline-block; white-space: nowrap;"><span class="nodeLabel"><div><img src="https://cdn.jsdelivr.net/gh/glincker/thesvg@main/public/icons/gcp-my-cloud/default.svg" style="width: 100%; height: 80px; display: flex; flex-direction: column;" /><br />Floci<br />(Local<br />AWS<br />Emulation)</div></span></div></foreignObject></g></g><g class="node default nodeStyle flowchart-label" id="flowchart-Postgres-5" data-node="true" data-id="Postgres" transform="translate(2112.330078125, 1037)"><rect class="basic label-container" style="" rx="0" ry="0" x="-49.1796875" y="-55.25" width="98.359375" height="110.5"/><g class="label" style="" transform="translate(-41.6796875, -47.75)"><rect/><foreignObject width="83.359375" height="95.5"><div xmlns="http://www.w3.org/1999/xhtml" style="display: inline-block; white-space: nowrap;"><span class="nodeLabel"><div><img src="https://cdn.jsdelivr.net/gh/glincker/thesvg@main/public/icons/postgresql/default.svg" style="width: 100%; height: 40px; display: flex; flex-direction: column;" /><br />PostgreSQL<br />(Database)</div></span></div></foreignObject></g></g><g class="node default nodeStyle flowchart-label" id="flowchart-Kafka-6" data-node="true" data-id="Kafka" transform="translate(2286.095703125, 1037)"><rect class="basic label-container" style="" rx="0" ry="0" x="-74.5859375" y="-55.25" width="149.171875" height="110.5"/><g class="label" style="" transform="translate(-67.0859375, -47.75)"><rect/><foreignObject width="134.171875" height="95.5"><div xmlns="http://www.w3.org/1999/xhtml" style="display: inline-block; white-space: nowrap;"><span class="nodeLabel"><div><img src="https://cdn.jsdelivr.net/gh/glincker/thesvg@main/public/icons/apache-kafka/default.svg" style="width: 100%; height: 40px; display: flex; flex-direction: column;" /><br />Kafka<br />(Event Streaming)</div></span></div></foreignObject></g></g><g class="node default nodeStyle flowchart-label" id="flowchart-Prometheus-7" data-node="true" data-id="Prometheus" transform="translate(2702.744140625, 1037)"><rect class="basic label-container" style="" rx="0" ry="0" x="-52.296875" y="-55.25" width="104.59375" height="110.5"/><g class="label" style="" transform="translate(-44.796875, -47.75)"><rect/><foreignObject width="89.59375" height="95.5"><div xmlns="http://www.w3.org/1999/xhtml" style="display: inline-block; white-space: nowrap;"><span class="nodeLabel"><div><img src="https://cdn.jsdelivr.net/gh/glincker/thesvg@main/public/icons/prometheus/default.svg" style="width: 100%; height: 40px; display: flex; flex-direction: column;" /><br />Prometheus<br />(Metrics)</div></span></div></foreignObject></g></g><g class="node default nodeStyle flowchart-label" id="flowchart-Grafana-8" data-node="true" data-id="Grafana" transform="translate(2571.60546875, 1724)"><rect class="basic label-container" style="" rx="0" ry="0" x="-52.46875" y="-55.25" width="104.9375" height="110.5"/><g class="label" style="" transform="translate(-44.96875, -47.75)"><rect/><foreignObject width="89.9375" height="95.5"><div xmlns="http://www.w3.org/1999/xhtml" style="display: inline-block; white-space: nowrap;"><span class="nodeLabel"><div><img src="https://cdn.jsdelivr.net/gh/glincker/thesvg@main/public/icons/grafana/default.svg" style="width: 100%; height: 40px; display: flex; flex-direction: column;" /><br />Grafana<br />(Dashboard)</div></span></div></foreignObject></g></g><g class="node default nodeStyle flowchart-label" id="flowchart-Zipkin-9" data-node="true" data-id="Zipkin" transform="translate(2560.349609375, 1037)"><rect class="basic label-container" style="" rx="0" ry="0" x="-40.09765625" y="-55.25" width="80.1953125" height="110.5"/><g class="label" style="" transform="translate(-32.59765625, -47.75)"><rect/><foreignObject width="65.1953125" height="95.5"><div xmlns="http://www.w3.org/1999/xhtml" style="display: inline-block; white-space: nowrap;"><span class="nodeLabel"><div><img src="https://avatars.githubusercontent.com/u/11860887?s=280&amp;v=4" style="width: 100%; height: 40px; display: flex; flex-direction: column;" /><br />Zipkin<br />(Tracing)</div></span></div></foreignObject></g></g><g class="node default nodeStyle flowchart-label" id="flowchart-Loki-10" data-node="true" data-id="Loki" transform="translate(2440.466796875, 1037)"><rect class="basic label-container" style="" rx="0" ry="0" x="-29.78515625" y="-55.25" width="59.5703125" height="110.5"/><g class="label" style="" transform="translate(-22.28515625, -47.75)"><rect/><foreignObject width="44.5703125" height="95.5"><div xmlns="http://www.w3.org/1999/xhtml" style="display: inline-block; white-space: nowrap;"><span class="nodeLabel"><div><img src="https://cdn.jsdelivr.net/gh/homarr-labs/dashboard-icons/svg/loki.svg" style="width: 100%; height: 40px; display: flex; flex-direction: column;" /><br />Loki<br />(Logs)</div></span></div></foreignObject></g></g><g class="node default nodeStyle flowchart-label" id="flowchart-LocalApp-4" data-node="true" data-id="LocalApp" transform="translate(2286.095703125, 359.25)"><rect class="basic label-container" style="" rx="0" ry="0" x="-71.42578125" y="-55.25" width="142.8515625" height="110.5"/><g class="label" style="" transform="translate(-63.92578125, -47.75)"><rect/><foreignObject width="127.8515625" height="95.5"><div xmlns="http://www.w3.org/1999/xhtml" style="display: inline-block; white-space: nowrap;"><span class="nodeLabel"><div><img src="https://cdn.jsdelivr.net/gh/glincker/thesvg@main/public/icons/spring-boot/default.svg" style="width: 100%; height: 40px; display: flex; flex-direction: column;" /><br />Order Service<br />(Spring WebFlux)</div></span></div></foreignObject></g></g><g class="node default nodeStyle flowchart-label" id="flowchart-LocalUser-3" data-node="true" data-id="LocalUser" transform="translate(2043.478515625, 96)"><rect class="basic label-container" style="" rx="0" ry="0" x="-24.3828125" y="-46" width="48.765625" height="92"/><g class="label" style="" transform="translate(-16.8828125, -38.5)"><rect/><foreignObject width="33.765625" height="77"><div xmlns="http://www.w3.org/1999/xhtml" style="display: inline-block; white-space: nowrap;"><span class="nodeLabel"><div><img src="https://cdn.jsdelivr.net/gh/glincker/thesvg@main/public/icons/azure-users/default.svg" style="width: 100%; height: 40px; display: flex; flex-direction: column;" /><br />User</div></span></div></foreignObject></g></g></g></g></g></svg>